<svg xmlns="http://www.w3.org/2000/svg" style="display:none">
<defs></defs>

<!-- Brand mark: dg glyph — circle (physical world) + stem (digital axis). Also reads 0/1. -->
<symbol id="i-mark" viewBox="0 0 120 120">
  <g fill="none" stroke-linecap="round">
    <circle cx="60" cy="60" r="27" stroke="#A56B45" stroke-width="11"/>
    <line x1="87" y1="16" x2="87" y2="104" stroke="currentColor" stroke-width="11"/>
  </g>
</symbol>

<!-- Trifox / FoxGrid : triangular fox -->
<symbol id="i-trifox" viewBox="0 0 48 48">
  <g fill="none" stroke="currentColor" stroke-width="1.4" stroke-linejoin="round" stroke-linecap="round">
    <path d="M8 12 L20 26 L8 30 Z"/>
    <path d="M40 12 L28 26 L40 30 Z"/>
    <path d="M20 26 L24 38 L28 26 Z"/>
    <path d="M20 26 L28 26"/>
    <circle cx="18.5" cy="22" r="0.9" fill="currentColor"/>
    <circle cx="29.5" cy="22" r="0.9" fill="currentColor"/>
  </g>
</symbol>

<!-- Avirlog : decision triangle structure -->
<symbol id="i-avirlog" viewBox="0 0 48 48">
  <g fill="none" stroke="currentColor" stroke-width="1.4" stroke-linejoin="round" stroke-linecap="round">
    <path d="M24 8 L40 36 L8 36 Z"/>
    <path d="M24 8 L24 26"/>
    <path d="M24 26 L16 36"/>
    <path d="M24 26 L32 36"/>
    <circle cx="24" cy="8" r="2.2" fill="none"/>
    <circle cx="16" cy="36" r="2.2" fill="none"/>
    <circle cx="32" cy="36" r="2.2" fill="none"/>
  </g>
</symbol>

<!-- Breath Tracker : breath circle + waveform -->
<symbol id="i-breath" viewBox="0 0 48 48">
  <g fill="none" stroke="currentColor" stroke-width="1.4" stroke-linecap="round">
    <circle cx="24" cy="24" r="15"/>
    <circle cx="24" cy="24" r="8" opacity="0.5"/>
    <path d="M6 24 H14 L17 16 L21 30 L24 20 L27 28 L30 24 H42"/>
  </g>
</symbol>

<!-- Water Drop -->
<symbol id="i-water" viewBox="0 0 48 48">
  <g fill="none" stroke="currentColor" stroke-width="1.4" stroke-linecap="round" stroke-linejoin="round">
    <path d="M24 7 C24 7 35 20 35 29 A11 11 0 0 1 13 29 C13 20 24 7 24 7 Z"/>
    <path d="M20 30 a4 4 0 0 0 4 4" opacity="0.6"/>
  </g>
</symbol>

<!-- Four Elements : spiral / elemental -->
<symbol id="i-elements" viewBox="0 0 48 48">
  <g fill="none" stroke="currentColor" stroke-width="1.4" stroke-linecap="round">
    <circle cx="24" cy="24" r="16"/>
    <path d="M24 8 L24 40 M8 24 L40 24" opacity="0.4"/>
    <path d="M24 24 m-16 0 a16 16 0 0 1 16 -16 a8 8 0 0 1 0 16 a4 4 0 0 1 0 -8"/>
  </g>
</symbol>

<!-- Proof of Silence : concentric rings -->
<symbol id="i-silence" viewBox="0 0 48 48">
  <g fill="none" stroke="currentColor" stroke-width="1.4">
    <circle cx="24" cy="24" r="16" opacity="0.35"/>
    <circle cx="24" cy="24" r="11" opacity="0.6"/>
    <circle cx="24" cy="24" r="6"/>
    <circle cx="24" cy="24" r="1.6" fill="currentColor"/>
  </g>
</symbol>

<!-- Pillars -->
<symbol id="i-awareness" viewBox="0 0 48 48">
  <g fill="none" stroke="currentColor" stroke-width="1.4" stroke-linecap="round">
    <path d="M6 24 C12 14 36 14 42 24 C36 34 12 34 6 24 Z"/>
    <circle cx="24" cy="24" r="5.5"/>
    <circle cx="24" cy="24" r="1.4" fill="currentColor"/>
  </g>
</symbol>
<symbol id="i-embodiment" viewBox="0 0 48 48">
  <g fill="none" stroke="currentColor" stroke-width="1.4" stroke-linecap="round">
    <circle cx="24" cy="12" r="4"/>
    <path d="M24 16 L24 30 M24 30 L16 40 M24 30 L32 40 M14 22 L34 22"/>
  </g>
</symbol>
<symbol id="i-intelligence" viewBox="0 0 48 48">
  <g fill="none" stroke="currentColor" stroke-width="1.4" stroke-linecap="round">
    <circle cx="24" cy="10" r="3"/><circle cx="11" cy="30" r="3"/><circle cx="37" cy="30" r="3"/>
    <circle cx="24" cy="40" r="3"/><circle cx="24" cy="24" r="3"/>
    <path d="M24 13 L24 21 M22 22 L13 28 M26 22 L35 28 M13 33 L22 39 M35 33 L26 39"/>
  </g>
</symbol>
<symbol id="i-evolution" viewBox="0 0 48 48">
  <g fill="none" stroke="currentColor" stroke-width="1.4" stroke-linecap="round">
    <path d="M8 38 C16 38 18 10 24 10 C30 10 32 38 40 38"/>
    <path d="M24 10 L24 4 M21 7 L24 4 L27 7" opacity="0.8"/>
  </g>
</symbol>

<!-- UI -->
<symbol id="i-arrow" viewBox="0 0 24 24">
  <g fill="none" stroke="currentColor" stroke-width="1.5" stroke-linecap="round" stroke-linejoin="round">
    <path d="M5 12 H19 M13 6 L19 12 L13 18"/>
  </g>
</symbol>
<symbol id="i-arrow-ur" viewBox="0 0 24 24">
  <g fill="none" stroke="currentColor" stroke-width="1.5" stroke-linecap="round" stroke-linejoin="round">
    <path d="M7 17 L17 7 M9 7 H17 V15"/>
  </g>
</symbol>

<!-- meditative figure -->
<symbol id="i-figure" viewBox="0 0 80 120">
  <g fill="currentColor">
    <circle cx="40" cy="20" r="9"/>
    <path d="M40 31 C26 31 18 44 18 60 C18 72 24 80 24 80 L20 104 L30 104 L34 84 L46 84 L50 104 L60 104 L56 80 C56 80 62 72 62 60 C62 44 54 31 40 31 Z M24 64 C24 64 16 70 12 82 M56 64 C56 64 64 70 68 82"/>
  </g>
</symbol>

<!-- Sacred geometry: flower / mandala for mission -->
<symbol id="i-mandala" viewBox="0 0 200 200">
  <g fill="none" stroke="currentColor" stroke-width="1">
    <circle cx="100" cy="100" r="80"/>
    <circle cx="100" cy="100" r="55" opacity="0.6"/>
    <circle cx="100" cy="100" r="30" opacity="0.4"/>
    <g opacity="0.7">
      <circle cx="100" cy="55" r="30"/><circle cx="100" cy="145" r="30"/>
      <circle cx="61" cy="77" r="30"/><circle cx="139" cy="77" r="30"/>
      <circle cx="61" cy="123" r="30"/><circle cx="139" cy="123" r="30"/>
    </g>
    <circle cx="100" cy="100" r="6" fill="currentColor"/>
  </g>
</symbol>

<!-- Socials -->
<symbol id="i-x" viewBox="0 0 24 24"><path fill="currentColor" d="M18.244 2H21.5l-7.5 8.57L22.5 22h-6.8l-5-6.54L4.9 22H1.64l8.02-9.16L1.5 2h6.96l4.53 5.98L18.244 2Zm-1.19 18h1.83L7.04 3.9H5.07L17.05 20Z"/></symbol>
<symbol id="i-github" viewBox="0 0 24 24"><path fill="currentColor" d="M12 2a10 10 0 0 0-3.16 19.49c.5.09.68-.22.68-.48v-1.7c-2.78.6-3.37-1.34-3.37-1.34-.45-1.16-1.11-1.46-1.11-1.46-.91-.62.07-.6.07-.6 1 .07 1.53 1.03 1.53 1.03.9 1.53 2.36 1.09 2.94.83.09-.65.35-1.09.63-1.34-2.22-.25-4.55-1.11-4.55-4.94 0-1.09.39-1.98 1.03-2.68-.1-.25-.45-1.27.1-2.65 0 0 .84-.27 2.75 1.02a9.5 9.5 0 0 1 5 0c1.91-1.29 2.75-1.02 2.75-1.02.55 1.38.2 2.4.1 2.65.64.7 1.03 1.59 1.03 2.68 0 3.84-2.34 4.69-4.57 4.94.36.31.68.92.68 1.85v2.74c0 .27.18.58.69.48A10 10 0 0 0 12 2Z"/></symbol>
<symbol id="i-linkedin" viewBox="0 0 24 24"><path fill="currentColor" d="M4.98 3.5a2.5 2.5 0 1 1 0 5 2.5 2.5 0 0 1 0-5ZM3 9h4v12H3V9Zm6 0h3.8v1.64h.05c.53-1 1.83-2.05 3.77-2.05C20.6 8.59 22 10.3 22 13.6V21h-4v-6.6c0-1.57-.03-3.6-2.2-3.6-2.2 0-2.54 1.72-2.54 3.49V21H9V9Z"/></symbol>
<symbol id="i-mail" viewBox="0 0 24 24"><g fill="none" stroke="currentColor" stroke-width="1.5"><rect x="3" y="5" width="18" height="14" rx="2"/><path d="M3.5 6.5 12 13l8.5-6.5"/></g></symbol>

<!-- ===== Learn section icons ===== -->

<!-- Spark / AI assistant -->
<symbol id="i-spark" viewBox="0 0 48 48">
  <g fill="none" stroke="currentColor" stroke-width="1.4" stroke-linejoin="round" stroke-linecap="round">
    <path d="M24 6 C26 16 32 22 42 24 C32 26 26 32 24 42 C22 32 16 26 6 24 C16 22 22 16 24 6 Z"/>
    <path d="M37 8 c.7 3.2 2 4.5 5.2 5.2 -3.2.7-4.5 2-5.2 5.2 -.7-3.2-2-4.5-5.2-5.2 3.2-.7 4.5-2 5.2-5.2Z"/>
  </g>
</symbol>

<!-- Terminal -->
<symbol id="i-terminal" viewBox="0 0 48 48">
  <g fill="none" stroke="currentColor" stroke-width="1.4" stroke-linejoin="round" stroke-linecap="round">
    <rect x="7" y="10" width="34" height="28" rx="3"/>
    <path d="M14 21 L20 25 L14 29"/>
    <path d="M24 30 L33 30"/>
  </g>
</symbol>

<!-- Foundations / layers iceberg -->
<symbol id="i-foundations" viewBox="0 0 48 48">
  <g fill="none" stroke="currentColor" stroke-width="1.4" stroke-linejoin="round" stroke-linecap="round">
    <path d="M24 6 L42 15 L24 24 L6 15 Z"/>
    <path d="M6 24 L24 33 L42 24"/>
    <path d="M6 33 L24 42 L42 33"/>
  </g>
</symbol>

<!-- Robot -->
<symbol id="i-robot" viewBox="0 0 48 48">
  <g fill="none" stroke="currentColor" stroke-width="1.4" stroke-linejoin="round" stroke-linecap="round">
    <rect x="11" y="16" width="26" height="22" rx="4"/>
    <path d="M24 8 L24 16"/>
    <circle cx="24" cy="6" r="2.4"/>
    <circle cx="18.5" cy="26" r="2.2" fill="currentColor"/>
    <circle cx="29.5" cy="26" r="2.2" fill="currentColor"/>
    <path d="M19 33 L29 33"/>
    <path d="M11 23 L6 23 M37 23 L42 23"/>
  </g>
</symbol>

<!-- Chip / physical AI -->
<symbol id="i-chip" viewBox="0 0 48 48">
  <g fill="none" stroke="currentColor" stroke-width="1.4" stroke-linejoin="round" stroke-linecap="round">
    <rect x="14" y="14" width="20" height="20" rx="3"/>
    <rect x="20" y="20" width="8" height="8" rx="1"/>
    <path d="M19 14 L19 8 M29 14 L29 8 M19 34 L19 40 M29 34 L29 40 M14 19 L8 19 M14 29 L8 29 M34 19 L40 19 M34 29 L40 29"/>
  </g>
</symbol>

<!-- Gear / mech eng -->
<symbol id="i-gear" viewBox="0 0 48 48">
  <g fill="none" stroke="currentColor" stroke-width="1.4" stroke-linejoin="round" stroke-linecap="round">
    <circle cx="24" cy="24" r="7"/>
    <path d="M24 5 L24 11 M24 37 L24 43 M5 24 L11 24 M37 24 L43 24 M10.6 10.6 L14.8 14.8 M33.2 33.2 L37.4 37.4 M37.4 10.6 L33.2 14.8 M14.8 33.2 L10.6 37.4"/>
  </g>
</symbol>

<!-- Check -->
<symbol id="i-check" viewBox="0 0 24 24"><path fill="none" stroke="currentColor" stroke-width="2" stroke-linecap="round" stroke-linejoin="round" d="M5 12.5 L10 17.5 L19 7"/></symbol>

<!-- Lock -->
<symbol id="i-lock" viewBox="0 0 24 24"><g fill="none" stroke="currentColor" stroke-width="1.6" stroke-linecap="round" stroke-linejoin="round"><rect x="5" y="10.5" width="14" height="10" rx="2"/><path d="M8 10.5 V7.5 a4 4 0 0 1 8 0 V10.5"/></g></symbol>

<!-- Play -->
<symbol id="i-play" viewBox="0 0 24 24"><path fill="currentColor" d="M8 5.5 L18 12 L8 18.5 Z"/></symbol>

<!-- Book / lesson -->
<symbol id="i-book" viewBox="0 0 48 48">
  <g fill="none" stroke="currentColor" stroke-width="1.4" stroke-linejoin="round" stroke-linecap="round">
    <path d="M24 12 C20 9 13 9 9 10 L9 36 C13 35 20 35 24 38 C28 35 35 35 39 36 L39 10 C35 9 28 9 24 12 Z"/>
    <path d="M24 12 L24 38"/>
  </g>
</symbol>

<!-- Swordfight : crossed blades -->
<symbol id="i-sword" viewBox="0 0 48 48">
  <g fill="none" stroke="currentColor" stroke-width="1.4" stroke-linejoin="round" stroke-linecap="round">
    <path d="M10 8 L31 29"/>
    <path d="M38 8 L17 29"/>
    <path d="M27 33 L33 27 M15 27 L21 33"/>
    <path d="M12 36 L15 39 M36 36 L33 39"/>
    <circle cx="24" cy="24" r="1.2" fill="currentColor"/>
  </g>
</symbol>

<!-- Spacepoint : point tracked in space (IMU axes + orbit) -->
<symbol id="i-spacepoint" viewBox="0 0 48 48">
  <g fill="none" stroke="currentColor" stroke-width="1.4" stroke-linejoin="round" stroke-linecap="round">
    <circle cx="24" cy="24" r="3" fill="currentColor" stroke="none"/>
    <ellipse cx="24" cy="24" rx="17" ry="7"/>
    <ellipse cx="24" cy="24" rx="17" ry="7" transform="rotate(60 24 24)"/>
    <ellipse cx="24" cy="24" rx="17" ry="7" transform="rotate(-60 24 24)"/>
  </g>
</symbol>

<!-- Compass / path -->
<symbol id="i-compass" viewBox="0 0 48 48">
  <g fill="none" stroke="currentColor" stroke-width="1.4" stroke-linejoin="round" stroke-linecap="round">
    <circle cx="24" cy="24" r="18"/>
    <path d="M30 18 L26 26 L18 30 L22 22 Z"/>
    <circle cx="24" cy="24" r="1.6" fill="currentColor"/>
  </g>
</symbol>

<!-- Sacred geometry: Seed of Life (exact construction) -->
<symbol id="i-seed" viewBox="0 0 200 200">
  <circle cx="100.000" cy="100.000" r="90.000" fill="none" stroke="currentColor" stroke-width="2.0" opacity="1.0"/>
  <circle cx="100.000" cy="100.000" r="64.000" fill="none" stroke="currentColor" stroke-width="1.2" opacity="0.55"/>
  <circle cx="100.000" cy="100.000" r="30.000" fill="none" stroke="currentColor" stroke-width="1.6" opacity="0.75"/>
  <circle cx="100.000" cy="70.000" r="30.000" fill="none" stroke="currentColor" stroke-width="1.6" opacity="0.75"/>
  <circle cx="74.019" cy="85.000" r="30.000" fill="none" stroke="currentColor" stroke-width="1.6" opacity="0.75"/>
  <circle cx="74.019" cy="115.000" r="30.000" fill="none" stroke="currentColor" stroke-width="1.6" opacity="0.75"/>
  <circle cx="100.000" cy="130.000" r="30.000" fill="none" stroke="currentColor" stroke-width="1.6" opacity="0.75"/>
  <circle cx="125.981" cy="115.000" r="30.000" fill="none" stroke="currentColor" stroke-width="1.6" opacity="0.75"/>
  <circle cx="125.981" cy="85.000" r="30.000" fill="none" stroke="currentColor" stroke-width="1.6" opacity="0.75"/>
  <circle cx="100.000" cy="100.000" r="60.000" fill="none" stroke="currentColor" stroke-width="1.0" opacity="0.5"/>
  <circle cx="100" cy="100" r="5" fill="currentColor"/>
</symbol>

<!-- Sacred geometry: Flower of Life -->
<symbol id="i-flower" viewBox="0 0 200 200">
  <circle cx="100.000" cy="100.000" r="92.000" fill="none" stroke="currentColor" stroke-width="2.0" opacity="1.0"/>
  <circle cx="100.000" cy="100.000" r="81.000" fill="none" stroke="currentColor" stroke-width="1.0" opacity="0.5"/>
  <circle cx="54.967" cy="74.000" r="26.000" fill="none" stroke="currentColor" stroke-width="1.3" opacity="0.42"/>
  <circle cx="54.967" cy="100.000" r="26.000" fill="none" stroke="currentColor" stroke-width="1.3" opacity="0.42"/>
  <circle cx="54.967" cy="126.000" r="26.000" fill="none" stroke="currentColor" stroke-width="1.3" opacity="0.42"/>
  <circle cx="77.483" cy="61.000" r="26.000" fill="none" stroke="currentColor" stroke-width="1.3" opacity="0.42"/>
  <circle cx="77.483" cy="87.000" r="26.000" fill="none" stroke="currentColor" stroke-width="1.3" opacity="0.6"/>
  <circle cx="77.483" cy="113.000" r="26.000" fill="none" stroke="currentColor" stroke-width="1.3" opacity="0.6"/>
  <circle cx="77.483" cy="139.000" r="26.000" fill="none" stroke="currentColor" stroke-width="1.3" opacity="0.42"/>
  <circle cx="100.000" cy="48.000" r="26.000" fill="none" stroke="currentColor" stroke-width="1.3" opacity="0.42"/>
  <circle cx="100.000" cy="74.000" r="26.000" fill="none" stroke="currentColor" stroke-width="1.3" opacity="0.6"/>
  <circle cx="100.000" cy="100.000" r="26.000" fill="none" stroke="currentColor" stroke-width="1.3" opacity="0.75"/>
  <circle cx="100.000" cy="126.000" r="26.000" fill="none" stroke="currentColor" stroke-width="1.3" opacity="0.6"/>
  <circle cx="100.000" cy="152.000" r="26.000" fill="none" stroke="currentColor" stroke-width="1.3" opacity="0.42"/>
  <circle cx="122.517" cy="61.000" r="26.000" fill="none" stroke="currentColor" stroke-width="1.3" opacity="0.42"/>
  <circle cx="122.517" cy="87.000" r="26.000" fill="none" stroke="currentColor" stroke-width="1.3" opacity="0.6"/>
  <circle cx="122.517" cy="113.000" r="26.000" fill="none" stroke="currentColor" stroke-width="1.3" opacity="0.6"/>
  <circle cx="122.517" cy="139.000" r="26.000" fill="none" stroke="currentColor" stroke-width="1.3" opacity="0.42"/>
  <circle cx="145.033" cy="74.000" r="26.000" fill="none" stroke="currentColor" stroke-width="1.3" opacity="0.42"/>
  <circle cx="145.033" cy="100.000" r="26.000" fill="none" stroke="currentColor" stroke-width="1.3" opacity="0.42"/>
  <circle cx="145.033" cy="126.000" r="26.000" fill="none" stroke="currentColor" stroke-width="1.3" opacity="0.42"/>
  <circle cx="100" cy="100" r="4.5" fill="currentColor"/>
</symbol>

<!-- Sacred geometry: Metatron's Cube -->
<symbol id="i-metatron" viewBox="0 0 200 200">
  <circle cx="100.000" cy="100.000" r="90.000" fill="none" stroke="currentColor" stroke-width="2.0" opacity="1.0"/>
  <line x1="100.000" y1="100.000" x2="100.000" y2="72.000" stroke="currentColor" stroke-width="0.7" opacity="0.4"/>
  <line x1="100.000" y1="100.000" x2="100.000" y2="44.000" stroke="currentColor" stroke-width="0.7" opacity="0.4"/>
  <line x1="100.000" y1="100.000" x2="75.751" y2="86.000" stroke="currentColor" stroke-width="0.7" opacity="0.4"/>
  <line x1="100.000" y1="100.000" x2="51.503" y2="72.000" stroke="currentColor" stroke-width="0.7" opacity="0.4"/>
  <line x1="100.000" y1="100.000" x2="75.751" y2="114.000" stroke="currentColor" stroke-width="0.7" opacity="0.4"/>
  <line x1="100.000" y1="100.000" x2="51.503" y2="128.000" stroke="currentColor" stroke-width="0.7" opacity="0.4"/>
  <line x1="100.000" y1="100.000" x2="100.000" y2="128.000" stroke="currentColor" stroke-width="0.7" opacity="0.4"/>
  <line x1="100.000" y1="100.000" x2="100.000" y2="156.000" stroke="currentColor" stroke-width="0.7" opacity="0.4"/>
  <line x1="100.000" y1="100.000" x2="124.249" y2="114.000" stroke="currentColor" stroke-width="0.7" opacity="0.4"/>
  <line x1="100.000" y1="100.000" x2="148.497" y2="128.000" stroke="currentColor" stroke-width="0.7" opacity="0.4"/>
  <line x1="100.000" y1="100.000" x2="124.249" y2="86.000" stroke="currentColor" stroke-width="0.7" opacity="0.4"/>
  <line x1="100.000" y1="100.000" x2="148.497" y2="72.000" stroke="currentColor" stroke-width="0.7" opacity="0.4"/>
  <line x1="100.000" y1="72.000" x2="100.000" y2="44.000" stroke="currentColor" stroke-width="0.7" opacity="0.4"/>
  <line x1="100.000" y1="72.000" x2="75.751" y2="86.000" stroke="currentColor" stroke-width="0.7" opacity="0.4"/>
  <line x1="100.000" y1="72.000" x2="51.503" y2="72.000" stroke="currentColor" stroke-width="0.7" opacity="0.4"/>
  <line x1="100.000" y1="72.000" x2="75.751" y2="114.000" stroke="currentColor" stroke-width="0.7" opacity="0.4"/>
  <line x1="100.000" y1="72.000" x2="51.503" y2="128.000" stroke="currentColor" stroke-width="0.7" opacity="0.4"/>
  <line x1="100.000" y1="72.000" x2="100.000" y2="128.000" stroke="currentColor" stroke-width="0.7" opacity="0.4"/>
  <line x1="100.000" y1="72.000" x2="100.000" y2="156.000" stroke="currentColor" stroke-width="0.7" opacity="0.4"/>
  <line x1="100.000" y1="72.000" x2="124.249" y2="114.000" stroke="currentColor" stroke-width="0.7" opacity="0.4"/>
  <line x1="100.000" y1="72.000" x2="148.497" y2="128.000" stroke="currentColor" stroke-width="0.7" opacity="0.4"/>
  <line x1="100.000" y1="72.000" x2="124.249" y2="86.000" stroke="currentColor" stroke-width="0.7" opacity="0.4"/>
  <line x1="100.000" y1="72.000" x2="148.497" y2="72.000" stroke="currentColor" stroke-width="0.7" opacity="0.4"/>
  <line x1="100.000" y1="44.000" x2="75.751" y2="86.000" stroke="currentColor" stroke-width="0.7" opacity="0.4"/>
  <line x1="100.000" y1="44.000" x2="51.503" y2="72.000" stroke="currentColor" stroke-width="0.7" opacity="0.4"/>
  <line x1="100.000" y1="44.000" x2="75.751" y2="114.000" stroke="currentColor" stroke-width="0.7" opacity="0.4"/>
  <line x1="100.000" y1="44.000" x2="51.503" y2="128.000" stroke="currentColor" stroke-width="0.7" opacity="0.4"/>
  <line x1="100.000" y1="44.000" x2="100.000" y2="128.000" stroke="currentColor" stroke-width="0.7" opacity="0.4"/>
  <line x1="100.000" y1="44.000" x2="100.000" y2="156.000" stroke="currentColor" stroke-width="0.7" opacity="0.4"/>
  <line x1="100.000" y1="44.000" x2="124.249" y2="114.000" stroke="currentColor" stroke-width="0.7" opacity="0.4"/>
  <line x1="100.000" y1="44.000" x2="148.497" y2="128.000" stroke="currentColor" stroke-width="0.7" opacity="0.4"/>
  <line x1="100.000" y1="44.000" x2="124.249" y2="86.000" stroke="currentColor" stroke-width="0.7" opacity="0.4"/>
  <line x1="100.000" y1="44.000" x2="148.497" y2="72.000" stroke="currentColor" stroke-width="0.7" opacity="0.4"/>
  <line x1="75.751" y1="86.000" x2="51.503" y2="72.000" stroke="currentColor" stroke-width="0.7" opacity="0.4"/>
  <line x1="75.751" y1="86.000" x2="75.751" y2="114.000" stroke="currentColor" stroke-width="0.7" opacity="0.4"/>
  <line x1="75.751" y1="86.000" x2="51.503" y2="128.000" stroke="currentColor" stroke-width="0.7" opacity="0.4"/>
  <line x1="75.751" y1="86.000" x2="100.000" y2="128.000" stroke="currentColor" stroke-width="0.7" opacity="0.4"/>
  <line x1="75.751" y1="86.000" x2="100.000" y2="156.000" stroke="currentColor" stroke-width="0.7" opacity="0.4"/>
  <line x1="75.751" y1="86.000" x2="124.249" y2="114.000" stroke="currentColor" stroke-width="0.7" opacity="0.4"/>
  <line x1="75.751" y1="86.000" x2="148.497" y2="128.000" stroke="currentColor" stroke-width="0.7" opacity="0.4"/>
  <line x1="75.751" y1="86.000" x2="124.249" y2="86.000" stroke="currentColor" stroke-width="0.7" opacity="0.4"/>
  <line x1="75.751" y1="86.000" x2="148.497" y2="72.000" stroke="currentColor" stroke-width="0.7" opacity="0.4"/>
  <line x1="51.503" y1="72.000" x2="75.751" y2="114.000" stroke="currentColor" stroke-width="0.7" opacity="0.4"/>
  <line x1="51.503" y1="72.000" x2="51.503" y2="128.000" stroke="currentColor" stroke-width="0.7" opacity="0.4"/>
  <line x1="51.503" y1="72.000" x2="100.000" y2="128.000" stroke="currentColor" stroke-width="0.7" opacity="0.4"/>
  <line x1="51.503" y1="72.000" x2="100.000" y2="156.000" stroke="currentColor" stroke-width="0.7" opacity="0.4"/>
  <line x1="51.503" y1="72.000" x2="124.249" y2="114.000" stroke="currentColor" stroke-width="0.7" opacity="0.4"/>
  <line x1="51.503" y1="72.000" x2="148.497" y2="128.000" stroke="currentColor" stroke-width="0.7" opacity="0.4"/>
  <line x1="51.503" y1="72.000" x2="124.249" y2="86.000" stroke="currentColor" stroke-width="0.7" opacity="0.4"/>
  <line x1="51.503" y1="72.000" x2="148.497" y2="72.000" stroke="currentColor" stroke-width="0.7" opacity="0.4"/>
  <line x1="75.751" y1="114.000" x2="51.503" y2="128.000" stroke="currentColor" stroke-width="0.7" opacity="0.4"/>
  <line x1="75.751" y1="114.000" x2="100.000" y2="128.000" stroke="currentColor" stroke-width="0.7" opacity="0.4"/>
  <line x1="75.751" y1="114.000" x2="100.000" y2="156.000" stroke="currentColor" stroke-width="0.7" opacity="0.4"/>
  <line x1="75.751" y1="114.000" x2="124.249" y2="114.000" stroke="currentColor" stroke-width="0.7" opacity="0.4"/>
  <line x1="75.751" y1="114.000" x2="148.497" y2="128.000" stroke="currentColor" stroke-width="0.7" opacity="0.4"/>
  <line x1="75.751" y1="114.000" x2="124.249" y2="86.000" stroke="currentColor" stroke-width="0.7" opacity="0.4"/>
  <line x1="75.751" y1="114.000" x2="148.497" y2="72.000" stroke="currentColor" stroke-width="0.7" opacity="0.4"/>
  <line x1="51.503" y1="128.000" x2="100.000" y2="128.000" stroke="currentColor" stroke-width="0.7" opacity="0.4"/>
  <line x1="51.503" y1="128.000" x2="100.000" y2="156.000" stroke="currentColor" stroke-width="0.7" opacity="0.4"/>
  <line x1="51.503" y1="128.000" x2="124.249" y2="114.000" stroke="currentColor" stroke-width="0.7" opacity="0.4"/>
  <line x1="51.503" y1="128.000" x2="148.497" y2="128.000" stroke="currentColor" stroke-width="0.7" opacity="0.4"/>
  <line x1="51.503" y1="128.000" x2="124.249" y2="86.000" stroke="currentColor" stroke-width="0.7" opacity="0.4"/>
  <line x1="51.503" y1="128.000" x2="148.497" y2="72.000" stroke="currentColor" stroke-width="0.7" opacity="0.4"/>
  <line x1="100.000" y1="128.000" x2="100.000" y2="156.000" stroke="currentColor" stroke-width="0.7" opacity="0.4"/>
  <line x1="100.000" y1="128.000" x2="124.249" y2="114.000" stroke="currentColor" stroke-width="0.7" opacity="0.4"/>
  <line x1="100.000" y1="128.000" x2="148.497" y2="128.000" stroke="currentColor" stroke-width="0.7" opacity="0.4"/>
  <line x1="100.000" y1="128.000" x2="124.249" y2="86.000" stroke="currentColor" stroke-width="0.7" opacity="0.4"/>
  <line x1="100.000" y1="128.000" x2="148.497" y2="72.000" stroke="currentColor" stroke-width="0.7" opacity="0.4"/>
  <line x1="100.000" y1="156.000" x2="124.249" y2="114.000" stroke="currentColor" stroke-width="0.7" opacity="0.4"/>
  <line x1="100.000" y1="156.000" x2="148.497" y2="128.000" stroke="currentColor" stroke-width="0.7" opacity="0.4"/>
  <line x1="100.000" y1="156.000" x2="124.249" y2="86.000" stroke="currentColor" stroke-width="0.7" opacity="0.4"/>
  <line x1="100.000" y1="156.000" x2="148.497" y2="72.000" stroke="currentColor" stroke-width="0.7" opacity="0.4"/>
  <line x1="124.249" y1="114.000" x2="148.497" y2="128.000" stroke="currentColor" stroke-width="0.7" opacity="0.4"/>
  <line x1="124.249" y1="114.000" x2="124.249" y2="86.000" stroke="currentColor" stroke-width="0.7" opacity="0.4"/>
  <line x1="124.249" y1="114.000" x2="148.497" y2="72.000" stroke="currentColor" stroke-width="0.7" opacity="0.4"/>
  <line x1="148.497" y1="128.000" x2="124.249" y2="86.000" stroke="currentColor" stroke-width="0.7" opacity="0.4"/>
  <line x1="148.497" y1="128.000" x2="148.497" y2="72.000" stroke="currentColor" stroke-width="0.7" opacity="0.4"/>
  <line x1="124.249" y1="86.000" x2="148.497" y2="72.000" stroke="currentColor" stroke-width="0.7" opacity="0.4"/>
  <circle cx="100.000" cy="100.000" r="14.000" fill="none" stroke="currentColor" stroke-width="1.4" opacity="0.8"/>
  <circle cx="100.000" cy="72.000" r="14.000" fill="none" stroke="currentColor" stroke-width="1.4" opacity="0.65"/>
  <circle cx="100.000" cy="44.000" r="14.000" fill="none" stroke="currentColor" stroke-width="1.4" opacity="0.65"/>
  <circle cx="75.751" cy="86.000" r="14.000" fill="none" stroke="currentColor" stroke-width="1.4" opacity="0.65"/>
  <circle cx="51.503" cy="72.000" r="14.000" fill="none" stroke="currentColor" stroke-width="1.4" opacity="0.65"/>
  <circle cx="75.751" cy="114.000" r="14.000" fill="none" stroke="currentColor" stroke-width="1.4" opacity="0.65"/>
  <circle cx="51.503" cy="128.000" r="14.000" fill="none" stroke="currentColor" stroke-width="1.4" opacity="0.65"/>
  <circle cx="100.000" cy="128.000" r="14.000" fill="none" stroke="currentColor" stroke-width="1.4" opacity="0.65"/>
  <circle cx="100.000" cy="156.000" r="14.000" fill="none" stroke="currentColor" stroke-width="1.4" opacity="0.65"/>
  <circle cx="124.249" cy="114.000" r="14.000" fill="none" stroke="currentColor" stroke-width="1.4" opacity="0.65"/>
  <circle cx="148.497" cy="128.000" r="14.000" fill="none" stroke="currentColor" stroke-width="1.4" opacity="0.65"/>
  <circle cx="124.249" cy="86.000" r="14.000" fill="none" stroke="currentColor" stroke-width="1.4" opacity="0.65"/>
  <circle cx="148.497" cy="72.000" r="14.000" fill="none" stroke="currentColor" stroke-width="1.4" opacity="0.65"/>
  <circle cx="100" cy="100" r="4" fill="currentColor"/>
</symbol>

<!-- Sacred geometry: Torus (12-fold) -->
<symbol id="i-torus" viewBox="0 0 200 200">
  <circle cx="100.000" cy="100.000" r="92.000" fill="none" stroke="currentColor" stroke-width="2.0" opacity="1.0"/>
  <circle cx="100.000" cy="100.000" r="88.000" fill="none" stroke="currentColor" stroke-width="1.0" opacity="0.45"/>
  <circle cx="100.000" cy="56.000" r="44.000" fill="none" stroke="currentColor" stroke-width="1.1" opacity="0.5"/>
  <circle cx="78.000" cy="61.895" r="44.000" fill="none" stroke="currentColor" stroke-width="1.1" opacity="0.5"/>
  <circle cx="61.895" cy="78.000" r="44.000" fill="none" stroke="currentColor" stroke-width="1.1" opacity="0.5"/>
  <circle cx="56.000" cy="100.000" r="44.000" fill="none" stroke="currentColor" stroke-width="1.1" opacity="0.5"/>
  <circle cx="61.895" cy="122.000" r="44.000" fill="none" stroke="currentColor" stroke-width="1.1" opacity="0.5"/>
  <circle cx="78.000" cy="138.105" r="44.000" fill="none" stroke="currentColor" stroke-width="1.1" opacity="0.5"/>
  <circle cx="100.000" cy="144.000" r="44.000" fill="none" stroke="currentColor" stroke-width="1.1" opacity="0.5"/>
  <circle cx="122.000" cy="138.105" r="44.000" fill="none" stroke="currentColor" stroke-width="1.1" opacity="0.5"/>
  <circle cx="138.105" cy="122.000" r="44.000" fill="none" stroke="currentColor" stroke-width="1.1" opacity="0.5"/>
  <circle cx="144.000" cy="100.000" r="44.000" fill="none" stroke="currentColor" stroke-width="1.1" opacity="0.5"/>
  <circle cx="138.105" cy="78.000" r="44.000" fill="none" stroke="currentColor" stroke-width="1.1" opacity="0.5"/>
  <circle cx="122.000" cy="61.895" r="44.000" fill="none" stroke="currentColor" stroke-width="1.1" opacity="0.5"/>
  <circle cx="100" cy="100" r="5" fill="currentColor"/>
</symbol>
</svg>
